<svg xmlns="http://www.w3.org/2000/svg" viewBox="0 0 375 375">
  <rect width="375" height="375" rx="72" fill="#0B0B0F"/>
  <g transform="translate(28 28) scale(.85)">
    <path d="M187.508 68.336v65.129L238.699 83.3V18.19z" fill="#287ee1"/><path d="M136.313 18.191v65.11l51.195 50.164v-65.13z" fill="#3895ff"/><path d="m136.313 18.191 51.195 50.145 51.191-50.145z" fill="#64acff"/>
    <path d="M187.484 306.625v-65.129l-51.191 50.164v65.11z" fill="#14848f"/><path d="M238.68 356.77v-65.11l-51.196-50.164v65.129z" fill="#27b8c6"/><path d="m238.68 356.77-51.196-50.145-51.191 50.145z" fill="#43d1df"/>
    <path d="M303.828 187.95H238.7l50.168 51.195h65.11z" fill="#ffc000"/><path d="M353.977 136.758h-65.11L238.7 187.949h65.13z" fill="#826200"/><path d="m353.977 136.758-50.149 51.191 50.149 51.196z" fill="#ffd452"/>
    <path d="M71.164 187.012h65.129l-50.168-51.196h-65.11z" fill="#742774"/><path d="M21.016 238.203h65.109l50.168-51.191H71.164z" fill="#bd47bd"/><path d="m21.016 238.203 50.148-51.191-50.148-51.196z" fill="#d671d6"/>
    <path d="M164 145l23.5 22.5L210 145l21 20-22.5 22.5L231 209l-20.5 21-23-22-22 23-21-20.5 22.5-23-23-22z" fill="#5552b4"/>
  </g>
</svg>
